# xmcd
#
# Track frame offsets:
#	150
#	28053
#	50948
#	68085
#	89784
#	116495
#	141170
#	163998
#	180641
#	200241
#	227620
#	246341
#
# Disc length: 3597 seconds
#
# Revision: 0
# Processed by: cddbd v1.5.2PL0 Copyright (c) Steve Scherf et al.
# Submitted via: FairStars CD Ripper 1.90
#
DISCID=ba0e0b0c
DTITLE=Jim Conway's Big Wheel - Just So
DYEAR=2013
DGENRE=Blues
TTITLE0=I Wouldn't Pay It any Mind
TTITLE1=Do What We  Wanna Do
TTITLE2=Don't Let The Drillers  In
TTITLE3=Bamako Youth
TTITLE4=Your Time Will Surely Come
TTITLE5=Sister Rosetta
TTITLE6=Just So
TTITLE7=I Need You Here Right Now
TTITLE8=Son Of The Father
TTITLE9=What Am I Doing Here
TTITLE10=Shaken Not Stirred
TTITLE11=We'll Get There
EXTD=
EXTT0=
EXTT1=
EXTT2=
EXTT3=
EXTT4=
EXTT5=
EXTT6=
EXTT7=
EXTT8=
EXTT9=
EXTT10=
EXTT11=
PLAYORDER=
